<svg height='100px' width='100px'  fill="#000000" xmlns="http://www.w3.org/2000/svg" xmlns:xlink="http://www.w3.org/1999/xlink" version="1.1" x="0px" y="0px" viewBox="0 0 48 48" style="enable-background:new 0 0 48 48;" xml:space="preserve"><path d="M39.1669922,28.4160156c-0.2880859,0-0.5615234,0.0507812-0.8271484,0.1240234L35.3125,24l3.0273438-4.5405273  c0.265625,0.0722656,0.5390625,0.1235352,0.8271484,0.1235352c1.7460938,0,3.1669922-1.4208984,3.1669922-3.1669922  s-1.4208984-3.1669922-3.1669922-3.1669922c-0.8740234,0-1.6660156,0.3554688-2.2392578,0.9296875l-9.8056641-4.9033203  c0.0205078-0.1459961,0.0449219-0.2910156,0.0449219-0.4423828c0-1.7460938-1.4208984-3.1669922-3.1669922-3.1669922  s-3.1669922,1.4208984-3.1669922,3.1669922c0,0.1513672,0.0239258,0.2963867,0.0449219,0.4423828l-9.8056641,4.9033203  c-0.5737305-0.5742188-1.3657227-0.9296875-2.2392578-0.9296875c-1.7460938,0-3.1669922,1.4208984-3.1669922,3.1669922  s1.4208984,3.1669922,3.1669922,3.1669922c0.2880859,0,0.5620117-0.0512695,0.8271484-0.1235352L12.6870117,24l-3.0263672,4.5400391  c-0.265625-0.0732422-0.5395508-0.1240234-0.8276367-0.1240234c-1.7460938,0-3.1669922,1.4208984-3.1669922,3.1669922  S7.0869141,34.75,8.8330078,34.75c0.8730469,0,1.6650391-0.3554688,2.2382812-0.9287109l9.8066406,4.9033203  c-0.0209961,0.1455078-0.0449219,0.2910156-0.0449219,0.4423828c0,1.7460938,1.4208984,3.1669922,3.1669922,3.1669922  s3.1669922-1.4208984,3.1669922-3.1669922c0-0.1513672-0.0244141-0.296875-0.0449219-0.4423828l9.8066406-4.9033203  C37.5019531,34.3945312,38.2939453,34.75,39.1669922,34.75c1.7460938,0,3.1669922-1.4208984,3.1669922-3.1669922  S40.9130859,28.4160156,39.1669922,28.4160156z M36.2460938,29.0048828l-3.2021484-1.6015625l1.0673828-1.6005859  L36.2460938,29.0048828z M24.8271484,36.1240234C24.5620117,36.0507812,24.2880859,36,24,36  s-0.5615234,0.0507812-0.8271484,0.1230469l-5.2958984-7.9433594l3.8837891-1.9423828  C22.3344727,26.8115234,23.1264648,27.1669922,24,27.1669922s1.6660156-0.3554688,2.2392578-0.9296875l3.8837891,1.9423828  L24.8271484,36.1240234z M23.1733398,11.8764648C23.4384766,11.9492188,23.7124023,12,24,12  s0.5615234-0.0507812,0.8266602-0.1235352l5.2954102,7.9433594l-3.8837891,1.9423828  C25.6650391,21.1884766,24.8730469,20.8330078,24,20.8330078s-1.6650391,0.3554688-2.2382812,0.9291992l-3.8842773-1.9423828  L23.1733398,11.8764648z M25.1669922,24c0,0.6435547-0.5234375,1.1669922-1.1669922,1.1669922S22.8330078,24.6435547,22.8330078,24  S23.3564453,22.8330078,24,22.8330078S25.1669922,23.3564453,25.1669922,24z M20.8779297,23.5566406  C20.8569336,23.7026367,20.8330078,23.8481445,20.8330078,24c0,0.1513672,0.0239258,0.2963867,0.0449219,0.4423828  l-4.1191406,2.0595703L15.0908203,24l1.668457-2.5029297L20.8779297,23.5566406z M27.1220703,24.4423828  C27.1425781,24.2963867,27.1669922,24.1513672,27.1669922,24c0-0.1518555-0.0244141-0.2973633-0.0449219-0.4433594  l4.1181641-2.0595703L32.9091797,24l-1.6679688,2.5019531L27.1220703,24.4423828z M33.0429688,20.5957031l3.203125-1.6015625  l-2.1347656,3.203125L33.0429688,20.5957031z M39.1669922,15.2490234c0.6435547,0,1.1669922,0.5234375,1.1669922,1.1669922  s-0.5234375,1.1669922-1.1669922,1.1669922S38,17.0595703,38,16.4160156S38.5234375,15.2490234,39.1669922,15.2490234z   M36.0449219,16.8583984l-4.1201172,2.0600586l-5.0048828-7.5078125l9.125,4.5629883  C36.0244141,16.1196289,36,16.2646484,36,16.4160156S36.0244141,16.7124023,36.0449219,16.8583984z M24,7.6660156  c0.6435547,0,1.1669922,0.5234375,1.1669922,1.1669922S24.6435547,10,24,10s-1.1669922-0.5234375-1.1669922-1.1669922  S23.3564453,7.6660156,24,7.6660156z M21.0805664,11.4106445L16.074707,18.918457l-4.1196289-2.0600586  C11.9760742,16.7124023,12,16.5673828,12,16.4160156s-0.0239258-0.2963867-0.0449219-0.4423828L21.0805664,11.4106445z   M7.6660156,16.4160156c0-0.6435547,0.5234375-1.1669922,1.1669922-1.1669922S10,15.7724609,10,16.4160156  s-0.5234375,1.1669922-1.1669922,1.1669922S7.6660156,17.0595703,7.6660156,16.4160156z M11.7539062,18.9941406l3.2026367,1.6015625  l-1.0673828,1.6015625L11.7539062,18.9941406z M14.9560547,27.4033203l-3.2021484,1.6015625l2.1352539-3.2021484  L14.9560547,27.4033203z M8.8330078,32.75c-0.6435547,0-1.1669922-0.5234375-1.1669922-1.1669922  s0.5234375-1.1669922,1.1669922-1.1669922S10,30.9394531,10,31.5830078S9.4765625,32.75,8.8330078,32.75z M11.9550781,31.140625  l4.1191406-2.0595703l5.0053711,7.5078125l-9.1245117-4.5625C11.9760742,31.8798828,12,31.734375,12,31.5830078  S11.9760742,31.2861328,11.9550781,31.140625z M24,40.3339844c-0.6435547,0-1.1669922-0.5234375-1.1669922-1.1669922  S23.3564453,38,24,38s1.1669922,0.5234375,1.1669922,1.1669922S24.6435547,40.3339844,24,40.3339844z M26.9208984,36.5888672  l5.0048828-7.5078125l4.1191406,2.0595703C36.0244141,31.2861328,36,31.4316406,36,31.5830078  s0.0244141,0.296875,0.0449219,0.4433594L26.9208984,36.5888672z M39.1669922,32.75C38.5234375,32.75,38,32.2265625,38,31.5830078  s0.5234375-1.1669922,1.1669922-1.1669922s1.1669922,0.5234375,1.1669922,1.1669922S39.8105469,32.75,39.1669922,32.75z"></path></svg>